HIERARCHY
ROOT Hips
{
	OFFSET 0.0000 0.0000 0.0000
	CHANNELS 6 Xposition Yposition Zposition Zrotation Xrotation Yrotation
	JOINT Ab
	{
		OFFSET -0.0000 8.0846 -0.0000
		CHANNELS 3 Zrotation Xrotation Yrotation
		JOINT Chest
		{
			OFFSET -0.0000 25.0068 -0.0000
			CHANNELS 3 Zrotation Xrotation Yrotation
			JOINT Neck
			{
				OFFSET -0.0000 25.0068 0.0000
				CHANNELS 3 Zrotation Xrotation Yrotation
				JOINT Head
				{
					OFFSET -0.0000 10.7556 0.0000
					CHANNELS 3 Zrotation Xrotation Yrotation
					End Site
					{
						OFFSET -0.0000 16.6222 0.0000
					}
				}
			}
			JOINT LeftCollar
			{
				OFFSET -0.0000 25.0068 0.0000
				CHANNELS 3 Zrotation Xrotation Yrotation
				JOINT LeftShoulder
				{
					OFFSET 19.5556 -0.0000 0.0000
					CHANNELS 3 Zrotation Xrotation Yrotation
					JOINT LeftElbow
					{
						OFFSET 27.1828 0.0000 0.0000
						CHANNELS 3 Zrotation Xrotation Yrotation
						JOINT LeftWrist
						{
							OFFSET 23.3157 0.0000 0.0000
							CHANNELS 3 Zrotation Xrotation Yrotation
							End Site
							{
								OFFSET 0.0000 -14.6667 0.0000
							}
						}
					}
				}
			}
			JOINT RightCollar
			{
				OFFSET -0.0000 25.0068 0.0000
				CHANNELS 3 Zrotation Xrotation Yrotation
				JOINT RightShoulder
				{
					OFFSET -19.5556 0.0000 0.0000
					CHANNELS 3 Zrotation Xrotation Yrotation
					JOINT RightElbow
					{
						OFFSET -27.1828 0.0000 0.0000
						CHANNELS 3 Zrotation Xrotation Yrotation
						JOINT RightWrist
						{
							OFFSET -23.3157 0.0000 0.0000
							CHANNELS 3 Zrotation Xrotation Yrotation
							End Site
							{
								OFFSET -0.0000 -14.6667 0.0000
							}
						}
					}
				}
			}
		}
	}
	JOINT LeftHip
	{
		OFFSET 11.7333 0.0000 0.0000
		CHANNELS 3 Zrotation Xrotation Yrotation
		JOINT LeftKnee
		{
			OFFSET -0.0000 -40.8688 0.0000
			CHANNELS 3 Zrotation Xrotation Yrotation
			JOINT LeftAnkle
			{
				OFFSET -0.0000 -44.4337 0.0000
				CHANNELS 3 Zrotation Xrotation Yrotation
				End Site
				{
					OFFSET -0.0000 -4.8889 16.6222
				}
			}
		}
	}
	JOINT RightHip
	{
		OFFSET -11.7333 0.0000 0.0000
		CHANNELS 3 Zrotation Xrotation Yrotation
		JOINT RightKnee
		{
			OFFSET -0.0000 -40.8688 0.0000
			CHANNELS 3 Zrotation Xrotation Yrotation
			JOINT RightAnkle
			{
				OFFSET -0.0000 -44.4337 0.0000
				CHANNELS 3 Zrotation Xrotation Yrotation
				End Site
				{
					OFFSET -0.0000 -4.8889 16.6222
				}
			}
		}
	}
}
MOTION
Frames: 11
Frame Time: 0.010000
-5.5429 88.7589 188.1433 2.5519 359.1608 176.6345 1.5076 358.9311 358.3267 358.6073 12.2266 358.4625 0.8830 354.2060 1.3188 1.6794 20.3215 0.9661 339.3384 358.5137 8.2429 301.4518 31.9943 354.1015 16.5042 354.4160 322.8159 83.1412 0.9835 343.0406 22.3533 359.2386 356.1110 60.5020 44.5237 7.9990 336.7544 354.0230 28.3034 275.7913 353.4625 17.0254 1.3724 357.2550 358.3778 359.3451 10.5216 356.5070 357.6255 351.9390 21.7315 359.9222 350.5805 1.0334 358.7794 19.4334 8.9425 358.9796 344.8265 337.8955 
-5.5518 88.7601 188.1264 2.5451 359.1735 176.6358 1.4943 358.9638 358.3180 358.6029 12.1952 358.4539 0.8707 354.2060 1.2981 1.6722 20.3565 0.9480 339.3326 358.4897 8.2818 301.4389 32.1015 354.0951 16.6179 354.3727 322.8667 83.0874 0.9687 343.1277 22.3621 359.2272 356.1122 60.5203 44.5482 7.9620 336.7151 354.0378 28.3214 275.7887 353.4883 17.0130 1.3610 357.2750 358.3429 359.3451 10.5236 356.4668 357.7248 351.8732 21.7791 359.9024 350.6108 1.0120 358.7849 19.4181 8.9251 358.9528 344.8296 337.9290 
-5.5618 88.7603 188.1198 2.5392 359.1574 176.6393 1.4696 358.9615 358.3119 358.6193 12.1977 358.4469 0.8570 354.1776 1.2804 1.6770 20.3749 0.9293 339.3324 358.5027 8.2428 301.3836 31.9359 354.1603 16.4858 354.4288 322.8433 83.1871 0.9796 343.0143 22.3574 359.2381 356.1006 60.4782 44.5525 8.0133 336.7552 354.0455 28.3086 275.7535 353.4903 16.9840 1.3502 357.2229 358.3199 359.3313 10.6026 356.4784 357.7432 351.8367 21.7953 359.8866 350.6059 1.0627 358.8032 19.4065 8.8716 358.9635 344.8109 337.9280 
-5.5736 88.7596 188.1068 2.5360 359.1473 176.6380 1.4440 358.9646 358.3128 358.6371 12.1873 358.4462 0.8137 354.1716 1.2499 1.7220 20.3850 0.8926 339.3211 358.4815 8.2673 301.3684 32.0990 354.1782 16.6299 354.3662 322.8762 83.0884 0.9727 343.1541 22.3562 359.2319 356.0990 60.4707 44.5542 8.0108 336.7187 354.0539 28.3154 275.8193 353.4550 16.9230 1.3450 357.1835 358.2808 359.3146 10.6709 356.4802 357.7371 351.7867 21.8140 359.8709 350.6117 1.0710 358.8115 19.3889 8.8648 358.9558 344.8018 337.9359 
-5.5865 88.7597 188.0906 2.5274 359.1457 176.6292 1.3965 358.9639 358.3227 358.6779 12.2004 358.4522 0.7869 354.1426 1.2155 1.7357 20.4232 0.8556 339.3004 358.5003 8.2571 301.3477 32.0311 354.1927 16.5466 354.4304 322.9097 83.1488 0.9432 343.0625 22.3476 359.2336 356.0887 60.4433 44.5643 8.0336 336.7185 354.0382 28.3179 275.8433 353.4998 16.9162 1.3311 357.1598 358.2649 359.2931 10.7340 356.5064 357.7565 351.7608 21.8413 359.8508 350.6285 1.0970 358.8236 19.3795 8.8498 359.0268 344.7723 337.9498 
-5.6013 88.7589 188.0780 2.5300 359.1379 176.6280 1.3629 358.9592 358.3299 358.7165 12.2295 358.4561 0.7388 354.0735 1.1727 1.7942 20.4806 0.8015 339.2888 358.4974 8.2485 301.3194 32.0393 354.1921 16.5586 354.3944 322.8938 83.1883 0.9846 343.1012 22.3249 359.2147 356.0717 60.4487 44.5769 8.0507 336.6648 354.0367 28.3204 275.8751 353.4740 16.9024 1.3300 357.0775 358.1673 359.2623 10.8839 356.5650 357.7867 351.6702 21.8705 359.8383 350.6357 1.0961 358.8273 19.3630 8.8337 359.0358 344.7591 337.9844 
-5.6187 88.7591 188.0607 2.5244 359.1389 176.6166 1.3444 358.9746 358.3328 358.7144 12.2215 358.4591 0.7220 354.0501 1.1451 1.8246 20.5233 0.7700 339.2942 358.4770 8.2329 301.2378 31.9504 354.2547 16.5384 354.4048 322.8833 83.1240 0.9860 342.9951 22.3315 359.2190 356.0660 60.4395 44.5833 8.0535 336.7054 354.0594 28.2848 275.8279 353.3936 16.9548 1.3177 357.0715 358.1719 359.2475 10.9204 356.5663 357.7952 351.6409 21.8734 359.8138 350.6577 1.1273 358.8440 19.3439 8.8115 359.1587 344.7458 338.0303 
-5.6374 88.7597 188.0456 2.5196 359.1350 176.6038 1.3288 358.9991 358.3387 358.7104 12.1924 358.4657 0.6802 354.0674 1.0924 1.8599 20.5479 0.7125 339.2886 358.4988 8.2213 301.1910 31.8589 354.3002 16.4316 354.4596 322.9144 83.2084 0.9528 342.9216 22.3396 359.2372 356.0814 60.4490 44.5290 8.0296 336.8520 354.1284 28.1170 275.5153 352.8186 17.3530 1.3069 357.0608 358.1852 359.2358 10.9561 356.5282 357.8286 351.6219 21.9181 359.7878 350.6655 1.1431 358.8665 19.3335 8.7904 359.9003 344.6044 338.2045 
-5.6599 88.7597 188.0313 2.5175 359.1213 176.5917 1.3227 359.0081 358.3372 358.6998 12.1730 358.4646 0.6099 354.2733 0.9096 1.9010 20.4736 0.5251 339.2978 358.4817 8.1984 301.1125 31.7736 354.3807 16.4263 354.4410 322.8516 83.1716 0.9739 342.8777 22.3439 359.2387 356.0956 60.4406 44.5345 8.0172 336.8232 354.1242 28.1327 275.5680 352.7935 17.3674 1.2948 357.0403 358.2251 359.2290 10.9868 356.5103 357.8364 351.5947 21.9149 359.7611 350.6708 1.1688 358.8842 19.3158 8.7970 359.0865 344.7247 338.0162 
-5.6859 88.7592 188.0142 2.5107 359.1141 176.5782 1.3045 359.0205 358.3340 358.6968 12.1624 358.4607 0.5721 354.2370 0.8905 1.9512 20.5389 0.4998 339.2911 358.4840 8.2141 301.0821 31.7946 354.4138 16.4209 354.4575 322.8890 83.1576 0.9204 342.8854 22.3427 359.2287 356.1106 60.4368 44.5146 8.0078 336.8396 354.1070 28.1526 275.5529 352.7484 17.3949 1.2749 357.0220 358.2216 359.2169 11.0318 356.5085 357.8532 351.5513 21.9377 359.7233 350.6824 1.1842 358.9129 19.2914 8.7649 359.3174 344.6534 338.0289 
-5.7140 88.7593 188.0021 2.5020 359.0871 176.5669 1.2799 359.0296 358.3288 358.6979 12.1293 358.4563 0.5157 354.2173 0.8509 2.0217 20.5816 0.4528 339.2854 358.4955 8.2108 301.0275 31.6991 354.4614 16.3706 354.4765 322.8699 83.1088 0.9444 342.7985 22.3600 359.2418 356.1079 60.3591 44.5348 8.0489 336.8418 354.1072 28.1166 275.6787 352.6709 17.2092 1.2533 356.9917 358.2516 359.2113 11.0520 356.4842 357.8905 351.5434 21.9527 359.6828 350.6665 1.2073 358.9414 19.2831 8.7218 359.9756 344.5362 338.2724 
